<?xml version="1.0" encoding="UTF-8"?>
<svg width="400px" height="400px" viewBox="0 0 400 400" version="1.1" xmlns="http://www.w3.org/2000/svg" xmlns:xlink="http://www.w3.org/1999/xlink">
    <title>Profile Photo</title>
    <g id="Profile-Photo" stroke="none" stroke-width="1" fill="none" fill-rule="evenodd">
        <g id="dach" transform="translate(14.000000, 5.000000)" fill="#D6FD02" fill-rule="nonzero">
            <path d="M82.8,23.8174221 L82.8,10.6218277 L62.8,10.6218277 L62.8,27.2162873 L62.4,34.0140178 L57.8,37.0130165 L44.6,44.0106802 L0,67.6028036 L3.6,74.6004673 C13.8,70.401869 23.6,64.0040051 33.6,58.8057406 L92,28.0160203 L117,14.8204259 C122.2,12.2212937 127,8.82242847 133,8.22262873 C144,6.62316274 154,16.4198919 162.2,21.4182231 C177.6,31.0150191 192.6,41.0116815 207.8,50.6084774 C214.8,55.0070089 221.8,60.8050731 229.8,63.6041386 C247.8,70.2019358 266.6,56.6064749 282.4,49.6088112 C287.6,47.4095455 292.4,44.8104132 297.8,44.61048 C307.6,44.2106135 316.4,50.0086777 324.6,54.6071424 C338.2,62.0046726 352.6,70.2019358 366.6,76 L370,69.0023363 C355.4,60.4052066 339.8,53.0076764 324.6,45.6101462 C315.6,41.0116815 307,35.813417 296.6,36.8130833 C283,38.212616 269.6,46.6098125 257.4,52.2079434 C250.4,55.4068754 243.8,58.8057406 235.8,57.2062746 C226.8,55.2069421 218.4,47.8094119 210.8,43.011014 C195.4,33.0143516 179.8,23.0176891 164.2,13.4208932 C155.2,7.82276223 146.8,0.42523203 136,0.0253655332 C126.8,-0.374500964 119.6,4.02403051 112,8.22262873 C102,13.6208264 92,18.4192244 82.8,24.0173554 L82.8,23.8174221 Z" id="Path"></path>
        </g>
        <g id="Group-2" transform="translate(14.000000, 89.000000)" fill="#D7D7D7" fill-rule="nonzero">
            <path d="M1.13921569,151.848387 C0.488235294,151.354839 0,116.806452 0,75.3483871 L0,0 L8.95098039,0 L17.9019608,0 L17.9019608,34.2193548 C17.9019608,64.3258065 18.227451,68.9322581 20.9941176,74.0322581 C30.1078431,91.6354839 53.8686275,91.6354839 62.9823529,74.0322581 C66.5627451,67.2870968 66.7254902,65.1483871 66.7254902,33.3967742 L66.7254902,0 L74.8627451,0 L83,0 L83,36.6870968 C83,71.5645161 82.8372549,73.5387097 79.0941176,81.4354839 C74.7,91.1419355 64.772549,100.848387 56.1470588,103.645161 C48.3352941,106.277419 29.945098,105.125806 23.272549,101.670968 L17.9019608,99.0387097 L17.9019608,126.019355 L17.9019608,153 L10.0901961,153 C5.69607843,153 1.62745098,152.506452 1.13921569,151.848387 Z" id="Path" transform="translate(41.500000, 76.500000) scale(-1, 1) rotate(-180.000000) translate(-41.500000, -76.500000) "></path>
            <path d="M121.63549,156.326037 C99.5485946,148.186467 86.677814,127.67475 88.1079007,102.442083 C89.2201904,81.4419922 99.3896961,65.6512262 118.457519,55.5581593 C125.766851,51.6511656 128.468126,51 141.180008,51 C154.845282,51 156.434267,51.3255828 167.080468,57.0232819 L178.362264,62.8837724 L178.362264,57.3488647 L178.362264,51.813957 L187.260581,51.813957 L196,51.813957 L195.364406,85.6745687 C195.046609,105.697911 194.093218,121.81426 192.822029,125.395671 C189.48516,136.139903 179.633452,147.046927 167.716062,153.070209 C158.499948,157.628369 155.163079,158.442326 143.404588,158.9307 C133.552879,159.256283 127.673634,158.442326 121.63549,156.326037 Z M155.00418,139.884106 C161.677918,137.279443 170.735134,127.837542 174.072003,120.349137 C176.137684,115.628187 177.249974,109.442113 177.249974,102.930457 C177.249974,84.0466547 165.332584,70.5349683 147.53595,68.5814715 C124.81346,66.1396004 108.764709,83.8838633 110.353694,109.442113 C111.148187,122.628217 116.868534,132.23291 127.514735,137.767817 C134.982966,141.51202 148.012645,142.65156 155.00418,139.884106 Z" id="Shape" transform="translate(142.000000, 105.000000) scale(-1, 1) rotate(-180.000000) translate(-142.000000, -105.000000) "></path>
            <path d="M316.123857,154.491817 C296.086168,147.301691 289.24403,119.042824 303.742846,102.99045 C310.09626,95.8003239 313.191513,94.6298383 328.830685,93.2921405 C346.098937,91.7872304 351.149086,88.4429858 351.149086,78.5774643 C350.986178,66.8726082 349.031282,66.036547 322.151455,65.0332736 L298.203973,64.1972125 L297.715249,56.0038132 C297.389433,50.6530219 297.878157,47.3087773 299.344329,46.4727161 C302.439582,44.2989572 339.419707,44.6333816 347.076385,46.8071406 C354.570155,48.8136874 362.878466,56.3382377 366.62535,64.3644247 C370.046419,71.7217628 369.720603,86.1020146 365.973718,94.6298383 C361.249385,105.164209 351.963627,110.013363 334.695374,110.849425 C322.477271,111.685486 320.685283,112.187122 317.427122,116.033004 C309.607536,125.229676 315.146409,135.764047 329.482317,138.606655 C334.043742,139.442716 344.144041,139.609928 351.800719,139.108291 L365.81081,138.105018 L365.81081,147.636115 L365.81081,157 L344.306949,157 C329.971041,156.832788 320.359466,155.996727 316.123857,154.491817 Z" id="Path" transform="translate(332.500000, 101.000000) scale(-1, 1) rotate(-180.000000) translate(-332.500000, -101.000000) "></path>
            <path d="M209.648438,119.744568 C210.134766,82.8579988 210.458984,79.8123188 213.701172,73.3825498 C221.644531,57.8157406 236.882812,49.5247227 254.390625,51.2167672 C266.224609,52.2319939 275.464844,57.1389228 282.597656,65.9375541 C291.027344,76.2590254 292,81.5043632 292,122.451839 L292,159 L283.083984,159 L274.167969,159 L274.167969,122.790248 C274.167969,88.1033367 274.005859,86.5804966 270.601562,81.1659543 C260.388672,65.7683496 241.097656,65.9375541 229.912109,81.5043632 C227.15625,85.3960655 226.832031,88.7801545 226.994141,122.451839 L227.318359,159 L218.240234,159 L209,159 L209.648438,119.744568 Z" id="Path" transform="translate(250.500000, 105.000000) scale(-1, 1) rotate(-180.000000) translate(-250.500000, -105.000000) "></path>
        </g>
        <g id="Group" transform="translate(15.895267, 256.384615)" fill="#D6FD02" fill-rule="nonzero">
            <polygon id="Path" transform="translate(312.104733, 65.615385) scale(-1, 1) rotate(-180.000000) translate(-312.104733, -65.615385) " points="308.104733 65.6153846 308.104733 -0.384615385 312.104733 -0.384615385 316.104733 -0.384615385 316.104733 65.6153846 316.104733 131.615385 312.104733 131.615385 308.104733 131.615385"></polygon>
            <path d="M169.560066,129.965562 C156.089248,125.510532 147.651483,117.936982 141.582213,104.720394 C138.1775,97.1468432 137.733407,94.6223264 138.325531,85.4152651 C140.694027,50.3690316 179.33011,29.4303922 205.383561,49.3295247 C208.19615,51.5570396 208.19615,51.5570396 204.347344,53.4875524 C200.942632,54.9725623 199.16626,54.8240613 193.837145,52.7450475 C180.218296,47.5475129 166.895509,50.9630356 156.829403,62.1006098 C152.240443,67.1496434 145.431018,79.3267245 145.431018,82.4452453 C145.431018,82.7422473 164.527013,83.0392492 187.767876,83.0392492 L230.104733,83.0392492 L229.068516,90.1672967 C226.848052,106.205404 216.485884,120.7585 202.570973,127.589546 C193.837145,131.747574 178.441924,132.935582 169.560066,129.965562 Z M202.422942,116.600473 C209.82449,113.18495 217.226039,106.056903 219.446503,100.265364 C220.038627,98.4833521 220.926813,95.6618333 221.518937,93.8798215 L222.555154,90.4642987 L184.807256,90.4642987 L147.059359,90.4642987 L148.243606,94.6223264 C153.128628,111.254437 165.56323,120.015996 184.659225,120.164497 C192.504867,120.164497 196.797765,119.273491 202.422942,116.600473 Z" id="Shape" transform="translate(184.104733, 86.615385) scale(-1, 1) rotate(-180.000000) translate(-184.104733, -86.615385) "></path>
            <path d="M274.15312,128.830321 C270.269249,127.23138 264.859572,123.597425 261.946669,120.544902 C250.849894,109.20696 247.104733,95.2525705 247.104733,63.1284023 L247.104733,41.6153846 L250.988604,41.6153846 L254.733765,41.6153846 L254.733765,65.3087757 C254.733765,92.2000477 256.536991,101.212258 263.888604,110.515184 C268.743443,116.62023 280.117636,123.015992 286.359572,123.015992 C289.549894,123.015992 290.104733,123.597425 290.104733,127.376739 C290.104733,131.301411 289.688604,131.737486 285.666024,131.592127 C283.169249,131.592127 277.898282,130.283903 274.15312,128.830321 Z" id="Path" transform="translate(268.604733, 86.615385) scale(-1, 1) rotate(-180.000000) translate(-268.604733, -86.615385) "></path>
            <path d="M1.58727971,129.424137 C0.167468379,125.187724 2.15520424,72.7438574 4.00095897,67.3387792 C8.40237408,54.9217077 18.1990722,47.3253816 31.5452987,45.8645497 C42.9037894,44.6958841 51.7066196,47.617548 58.6636951,55.0677909 L64.4849216,61.0572019 L70.0221857,55.5060405 C77.6891669,47.7636312 85.6401103,44.8419673 96.004733,45.8645497 C109.208978,47.0332153 118.15379,53.4608758 123.407092,65.1475313 C125.67879,70.2604431 126.104733,75.0811885 126.104733,101.376163 L126.104733,131.615385 L122.555205,131.615385 L119.005677,131.615385 L119.005677,102.836995 C119.005677,77.5646028 118.579733,73.182107 116.308035,67.7770288 C108.499073,50.1009623 82.9424688,48.4940472 72.435865,64.8553649 C68.6023744,70.6986927 68.6023744,70.9908591 68.176431,101.23008 L67.7504876,131.615385 L64.3429404,131.615385 L61.0773744,131.615385 L60.651431,101.376163 C60.0835064,72.7438574 59.9415253,70.6986927 56.8179404,65.5857809 C46.3113365,48.347964 21.3226572,49.5166296 12.6618081,67.6309456 C9.96416654,73.6203566 9.68020428,76.5420205 9.68020428,102.836995 L9.68020428,131.615385 L6.13067596,131.615385 C4.1429401,131.615385 2.15520424,130.592802 1.58727971,129.424137 Z" id="Path" transform="translate(63.604733, 88.615385) scale(-1, 1) rotate(-180.000000) translate(-63.604733, -88.615385) "></path>
            <path d="M337.440313,111.894695 C326.29087,101.070557 316.776678,91.1360743 316.182041,89.6533156 C315.438744,87.5774536 319.898522,82.3877984 336.399698,66.3740053 C356.171379,47.0981432 357.95529,45.7636605 363.307022,45.6153846 L369.104733,45.6153846 L348.887075,66.3740053 C337.588972,77.6429708 328.520758,87.5774536 328.520758,88.3188329 C328.520758,89.2084881 337.588972,99.1429708 348.738416,110.708488 L368.956074,131.615385 L363.158363,131.615385 C357.95529,131.467109 356.022719,130.132626 337.440313,111.894695 Z" id="Path" transform="translate(342.604733, 88.615385) scale(-1, 1) rotate(-180.000000) translate(-342.604733, -88.615385) "></path>
        </g>
    </g>
</svg>