<?xml version="1.0" encoding="UTF-8"?>
<svg width="186px" height="39px" viewBox="0 0 186 39" version="1.1" xmlns="http://www.w3.org/2000/svg" xmlns:xlink="http://www.w3.org/1999/xlink">
    <title>Path</title>
    <g id="Page-1" stroke="none" stroke-width="1" fill="none" fill-rule="evenodd">
        <g id="logo" transform="translate(0.400000, 0.487305)" fill="#ffffff" fill-rule="nonzero">
            <path d="M41.4,11.8126947 L41.4,5.31269475 L31.4,5.31269475 L31.4,13.5126947 L31.2,16.9126947 L28.9,18.5126947 L22.3,21.9126947 L0,33.9126947 L1.8,37.4126947 C6.9,35.3126947 11.8,32.1126947 16.8,29.4126947 L46,14.0126947 L58.5,7.41269475 C61.1,6.11269475 63.5,4.41269475 66.5,4.11269475 C72,3.31269475 77,8.31269475 81.1,10.8126947 C88.8,15.6126947 96.3,20.6126947 103.9,25.4126947 C107.4,27.5126947 110.9,30.4126947 114.9,31.8126947 C123.9,35.1126947 133.3,28.3126947 141.2,24.8126947 C143.8,23.8126947 146.2,22.4126947 148.9,22.4126947 C153.8,22.1126947 158.2,25.0126947 162.3,27.4126947 C169.1,31.0126947 176.3,35.1126947 183.3,38.1126947 L185,34.6126947 C177.7,30.2126947 169.9,26.6126947 162.3,22.8126947 C157.8,20.5126947 153.5,17.9126947 148.3,18.4126947 C141.5,19.2126947 134.8,23.4126947 128.7,26.2126947 C125.2,27.7126947 121.9,29.4126947 117.9,28.6126947 C113.4,27.6126947 109.2,23.9126947 105.4,21.6126947 L82.1,6.51269475 C77.6,3.81269475 73.4,0.212694749 68,0.0126947494 C63.4,-0.187305251 59.8,2.01269475 56,4.01269475 C51,6.81269475 46,9.21269475 41.4,12.0126947 L41.4,11.8126947 Z" id="Path"></path>
        </g>
    </g>
</svg>