<svg viewBox="0 0 203 100" xmlns="http://www.w3.org/2000/svg"><g fill-rule="nonzero" fill="none"><path d="M41.8 12.3V5.8h-10V14l-.2 3.4-2.3 1.6-6.6 3.4L.4 34.4l1.8 3.5c5.1-2.1 10-5.3 15-8l29.2-15.4 12.5-6.6c2.6-1.3 5-3 8-3.3 5.5-.8 10.5 4.2 14.6 6.7 7.7 4.8 15.2 9.8 22.8 14.6 3.5 2.1 7 5 11 6.4 9 3.3 18.4-3.5 26.3-7 2.6-1 5-2.4 7.7-2.4 4.9-.3 9.3 2.6 13.4 5 6.8 3.6 14 7.7 21 10.7l1.7-3.5c-7.3-4.4-15.1-8-22.7-11.8-4.5-2.3-8.8-4.9-14-4.4-6.8.8-13.5 5-19.6 7.8-3.5 1.5-6.8 3.2-10.8 2.4-4.5-1-8.7-4.7-12.5-7L82.5 7C78 4.3 73.8.7 68.4.5c-4.6-.2-8.2 2-12 4-5 2.8-10 5.2-14.6 8v-.2Z" fill="#D6FD02"/><g fill="#D6FD02"><path d="M155.3 98c.1 2.8 2.5.9 3.6-.1.4 3.3 3.7 0 4.4-1.5-.8.7-1.3 1.7-2.2 2-1.3.9-1.1-.8-.8-1.5l.6-1.1-.7-.2c-1 1.3-2 3.2-3.9 3.4a6 6 0 0 1 1.9-4.3c1-1 2.2-1 2.3.5 1.5-.8-.1-2-1.2-1.8-3.1.5-3 4.5-5.3 5.3-1.4.4-1.3-1.8-1-2.4 1.4-2.6 5.5-5.6 4-9-1 .5-1.6 1.5-2.1 2.4-1.4 2.2-3 5.2-3 7.9-.1 2.5 2.2 1.6 3.4.5ZM197.7 95.3c1.6-2.8 4.4-5.6 4.7-9-1.1.4-1.5 1.4-2 2.3a28 28 0 0 0-3 6.7h.3ZM186.8 93.8l.5.2c-.4 1.5-.7 2.8-1.9 3.8-.3.3-1.2 1-1.6.4-.5-1 .8-2.3.4-3.3-.4-1.1-1.3-1.3-1.3-2.6-.8.4-.6 1.2-.9 2-.4 1.3-1 2.5-1.9 3.4-1 1-2.3 1-1.6-.8l.6-1.3c-1.7-.3-2 2.8-3.7 3-.9 0-.6-1.2-.5-1.6.5-1.2 3.6-5.2 3.8-2 1.8-1-.7-2-2-1.4-2.2 1-2.9 5.2-5.5 5.3-1.1 0-1.5-1-1.3-2a4.7 4.7 0 0 1 2.7-3.3l-.4 2c1.5-.2 1.3-2.3-.1-2.2-3.9.3-4.3 7.8 0 5.7.6-.3 1-.8 1.5-1.2.3 2.5 2.5.9 3.5-.3.2 1.6 1.6 1.8 2.7.9 1.3-1 2.2-3 2.6-4.7.4.4.9.7 1 1.3.1 1-2 5 1.1 3.8l.9-.5 1-1c.1 2.8 3.2 2 4.3 0 1.3 3 5.1 1.7 6-1.1h-.2c-.6 1-1.6 2.2-2.8 2.5-.8.2-2-.3-1.8-1.3.1-.6 1-.7 1.6-1a5 5 0 0 0 2.3-2.5c.1-.8-1-1.6-.4-.2.2.3-.6 1.2-1.1 1.5l-1.8.6c0-.2.2-1.4.8-2l.6-.5c.1-.1.5-.3.8-.3l.4.1.2.2V93l-.6-.2c-2.5 0-3 3-4.3 4.5-.5.7-1.5 1.7-2.3 1.3-1.3-.6-.6-4 .4-4.5.6-.4 2-.3 2.7-.4v-.4h-2.3l1.6-4.1c-2.2.6-1.8 3.8-3.7 4.4ZM145.2 91.2l2 1.9c-.3-1-.9-2-2-2ZM143.9 97.9c.2 3 3.6.2 4.1-1.3h-.2c-.3.5-2.4 3-2.8 1.6-.3-.8.7-1.5.5-2.4-1 .5-1.5 1.4-2.2 2-.8.9-2.4 1.4-1.9-.2.4-1.2 3.7-5.2 4.1-2 1-.6.3-1.6-.7-1.7-1.1 0-2.1.5-2.9 1.3-.8.7-3 5 0 4.2.8-.3 1.4-1 2-1.5ZM194.9 91.7c1.4-.5 2.7-1.3 2.8-2.8-1.5.2-2.5 1.5-2.8 2.8Z"/></g><g fill="#D7D7D7"><path d="m14.2 73-.2.2a66.3 66.3 0 0 0 0 7.9h.5v-3.5l.2-.3c.2-.7.7-1.2 1.4-1.4.4-.2 1-.2 1.3 0 .6.2 1 .7 1.3 1.4l.1 2L19 81c.1.1.3.1.4 0v-3.5a2.7 2.7 0 0 0-1.9-2.3h-1.2c-.6.1-1.2.5-1.5 1l-.1.2V75a7 7 0 0 0-.1-1.8h-.3ZM38.8 73.1v3.7l-.2-.3-1-1c-.5-.2-.8-.3-1.3-.3s-.9.1-1.3.3a3 3 0 0 0-1.5 1.9V79c.2.5.4.8.8 1.2.4.4.6.6 1.1.8l.9.1h.8a3 3 0 0 0 2.1-2.3v-5.7L39 73l-.2.1Zm-1.7 2.8c.9.3 1.5 1.1 1.6 2.1.1 1-.4 2-1.3 2.4-.4.2-.6.3-1.1.3-.7 0-1.2-.2-1.7-.7-.4-.5-.7-1-.7-1.8 0-.4.1-.7.3-1 .2-.5.6-1 1-1.2.6-.3 1.2-.3 1.9-.1ZM73.8 73v8.1c.1.1.3.1.4 0v-1.8l.1-1.8c.2-.9.9-1.5 1.7-1.7.5-.1 1 0 1.4.2.5.2.8.7 1 1.3l.1 2 .1 1.8c.1.1.3.1.4 0v-3.8c-.3-1.3-1.3-2.1-2.5-2.1a2 2 0 0 0-.8.1 3 3 0 0 0-1.3 1l-.1.2v-3.3L74 73h-.3ZM58.8 73.1v8h.4v-2.7a63.8 63.8 0 0 1 3 2.8c.1 0 .3-.2.2-.4a36.8 36.8 0 0 0-2.7-2.8l1-1 1.4-1.4c0-.2-.1-.3-.2-.3-.2 0-.2 0-1.8 1.6l-.8.8v-4.5H59c0-.2-.2-.2-.3 0ZM63.5 73.1l-.1 3.1v3.3c.2 1 1 1.6 1.8 1.7l.3-.1v-.3l-.3-.2c-.7 0-1.1-.4-1.2-1.1v-3.3l-.1-3a.2.2 0 0 0-.4 0ZM66.5 73.5l-.2.1c-.2.3.1.8.5.6.4-.2.1-.8-.3-.7ZM22.9 75.2c-.8.1-1.5.5-2 1.1-.4.7-.6 1.5-.6 2.3.2 1.7 1.8 3 3.5 2.6a3 3 0 0 0 1.6-1l.2-.2v1.2h.4l.1-1.7v-1.9a2.9 2.9 0 0 0-3.2-2.4Zm1 .6c.8.3 1.4 1 1.6 1.8.3 1.2-.3 2.4-1.3 2.9l-1 .2c-.7 0-1.1-.2-1.6-.7-.3-.3-.5-.6-.6-1a2 2 0 0 1-.1-.8v-.8l.6-.9c.6-.6 1.5-.9 2.3-.7ZM29.6 75.2c-.7 0-1.2.3-1.6.8l-.5.7c-.3.6-.3.6-.3 2.6V81c.1.1.3.1.4 0l.1-1.8v-1.7l.1-.3c.4-1 1.1-1.5 2-1.5 1 0 1.8.6 2 1.7.1.2.2.4.2 1.9V81h.4l.1-1.7c0-1.6 0-1.8-.2-2.4-.1-.4-.3-.7-.6-1-.6-.6-1.4-.9-2.1-.8ZM40.5 75.2v.1a43.4 43.4 0 0 0 0 4.7c.2.7.8 1.2 1.5 1.2.6 0 1 0 1.5-.5l.2-.3.1.1.7.6c1 .5 2.3-.2 2.5-1.4a53.2 53.2 0 0 0-.1-4.5h-.3V77.5c-.1 2.4 0 2.3-.4 2.7l-.4.3c-.2.2-.3.2-.6.2l-.5-.1c-.2-.2-.5-.4-.6-.7v-.2l-.1-2.2c0-2.4 0-2.3-.3-2.3-.2 0-.2-.1-.3 2.3V80l-.7.7h-1.1l-.5-.6-.1-2.4v-2.2l-.2-.1h-.3ZM50.4 75.2a3 3 0 0 0-.7 5.8c.7.3 1.6.3 2.2 0 .5-.2.6-.3.4-.5 0-.2-.2-.2-.5 0-.4.2-.8.2-1.2.2-1.1 0-2-1-2.2-2v-.2H51c3 0 2.7 0 2.7-.4s-.2-1-.4-1.5a3 3 0 0 0-1.8-1.3h-1.1Zm1 .6c.7.2 1.2.7 1.5 1.3l.2.8v.1H48.4l.3-1c.2-.4.7-.8 1-1a2 2 0 0 1 1-.3l.8.1ZM57.2 75.2a3 3 0 0 0-2.7 2.6 23.1 23.1 0 0 0 0 3.3c.2.1.3.1.4 0h.1V77.6l.3-.5c.4-.8 1.2-1.4 2-1.4.5 0 .6-.1.6-.3 0-.3-.2-.3-.7-.3ZM70.3 75.2c-.6 0-1.2.4-1.7.9l-.7 1.2-.1 1c0 .5 0 .8.3 1.3a2.9 2.9 0 0 0 4.5 1c.2-.3.1-.6-.2-.6l-.3.1-.7.5a2 2 0 0 1-.8 0h-.8a2 2 0 0 1-.8-.6c-1.2-1.2-.9-3.3.6-4a2 2 0 0 1 1-.2c.6 0 1 .1 1.4.4l.6.3c.2-.2.2-.4 0-.6-.6-.5-1.4-.8-2.3-.7ZM82.5 75.2c-.3 0-.8.2-1 .4a3.5 3.5 0 0 0-1.2 1.2 3 3 0 0 0-.3 1.4 3 3 0 0 0 2 3c.6.1 1.5 0 2-.1.4-.2.5-.3.5-.5 0-.1 0-.2-.2-.2l-.4.1c-.6.3-1.4.3-2 0-.4-.2-.9-.7-1-1l-.3-1h5.1l.1-.1v-.7a3 3 0 0 0-1.6-2.2 3 3 0 0 0-1.7-.3Zm1.2.7c.6.2 1 .6 1.4 1.2l.2.9h-4.7s0-.6.2-.8c.2-.7.7-1.1 1.4-1.4h1.5ZM66.4 75.3v5.8c.1.1.3.1.4 0v-5.8c0-.1-.3-.1-.4 0ZM88.6 73v8.1c0 .1.3.2 1.7.2a8 8 0 0 0 2-.1 3 3 0 0 0 2.1-2l.1-2c0-2 0-2-.3-2.7-.2-.4-.8-1-1.2-1.1-.7-.4-.8-.4-2.6-.4h-1.8Zm3.6.7c.4 0 .5.2.8.3l.8 1.1.1 1.7c0 1.7 0 2.1-.3 2.7-.3.5-.8 1-1.4 1.1a7 7 0 0 1-1.7 0H89v-7.1h1.4c1.1 0 1.5.1 1.7.2ZM123.2 73v3.3c0 3.3 0 3.5.2 4 .4.5 1 .9 1.8 1 .4 0 .6 0 .6-.3 0-.2 0-.2-.5-.3-.7 0-1.2-.3-1.4-.8l-.1-3.5c0-3.2 0-3.3-.2-3.3-.1-.1-.2-.1-.4 0ZM117.2 73V79a3 3 0 0 0 1 1.7c.9.6 2 .8 3 .5.6-.1 1.3-.6 1.3-.9 0-.3-.3-.3-.6 0l-.7.3c-1.5.5-3.2-.4-3.4-1.9l-.1-1.6v-1.4h3.2l.1-.1c.2-.1.2-.3 0-.4h-3.3v-2h-.5ZM141.9 73l-.1.3v5.6c.3 1 1.2 2 2.2 2.2 1 .3 1.9.1 2.6-.4.5-.3.6-.5.4-.7l-.5.1c-1 .8-2.5.7-3.4-.1-.3-.3-.5-.7-.6-1.1l-.1-1.8v-1.5h1.5c1.8 0 1.8 0 1.8-.3s0-.3-1.7-.3h-1.6v-.9c0-.8 0-1-.2-1h-.3ZM95.3 73.8l-.1.2v.3h.5l.1-.3c0-.3-.3-.4-.5-.2ZM133.3 73.7l-.2.3c0 .2.2.4.3.4.2 0 .4-.2.4-.4s-.3-.4-.5-.3ZM95.4 75.1c-.2.1-.2.2-.2 3v3c.2.2.4.2.5 0l.1-3v-3h-.4ZM99.5 75.1a3 3 0 0 0-2 1.7c-1 2.2.7 4.7 3.1 4.4.5 0 .7-.1 1-.3.2-.1.2-.1.2-.3l-.2-.3-.3.1a3 3 0 0 1-.4.2h-1.3a2.5 2.5 0 0 1-1.8-2v-.2h5.2l.1-.1v-.5a3 3 0 0 0-3.6-2.7Zm1.5.7a2.6 2.6 0 0 1 1.6 2v.1h-4.8v-.1c0-.2.1-.7.3-1 .3-.5.8-1 1.3-1 .4-.2 1.3-.2 1.6 0ZM106.2 75.1a3 3 0 0 0-2.3 2.1v4h.2c.3 0 .3 0 .3-1.7 0-1.8 0-2 .3-2.6.2-.4.7-.8 1-1 1.4-.7 2.9 0 3.4 1.3l.1 2 .1 2h.4l.1-2c0-1.9 0-2-.3-2.6-.4-.7-1-1.2-1.7-1.4a4 4 0 0 0-1.6 0ZM112.4 75.1a2 2 0 0 0-.8.5c-.3.5-.4 1.1-.2 1.7l.3.6c.5.4.6.5 1.8.5l1.2.1c.3.2.6.6.6 1 0 .3-.2.6-.3.8-.4.4-.3.4-2.1.4l-1.7.1v.4H114.6l.3-.1c.3-.2.7-.6.8-1l.1-.6-.1-.7c-.3-.5-.6-.8-1-.9a4 4 0 0 0-1.1 0c-1 0-1.2-.1-1.5-.4l-.2-.3c-.2-.5 0-1.2.5-1.5h1.5c1.5 0 1.6 0 1.6-.4 0-.2 0-.2-1.6-.2h-1.5ZM128.8 75.1l-.7.3-.8.6-.6.8c-.2.5-.3.8-.3 1.4a3 3 0 0 0 3.5 3c.4 0 .7-.1 1-.3.2 0 .2-.1.2-.3l-.2-.3-.3.1c-.4.2-.7.3-1.1.3-.5 0-.8 0-1.2-.3a3 3 0 0 1-1-1l-.3-.9v-.1H132.3v-.1l.1-.5a3 3 0 0 0-3.6-2.7Zm1.5.7c.8.3 1.4 1 1.5 1.9v.2H127v-.2c.1-.5.3-.9.6-1.3l1-.7h1.7ZM133.2 75.1l-.1 3 .1 3c.2.2.4.2.5 0v-6a.4.4 0 0 0-.5 0ZM137 75.1c-.4.2-.8.5-1 1v1.4c.2.3.5.6.8.7.3.2.3.2 1.3.2h1.2c.4.3.6.7.6 1.1 0 .5-.2.8-.7 1-.2.2-.2.2-1.7.2H136l-.1.1c-.2.1-.2.2 0 .4h3.3l.3-.1.8-.8.1-.8-.1-.8c-.2-.3-.5-.6-.8-.7-.3-.1-.3-.2-1.3-.2h-1.1c-.4-.2-.7-.7-.7-1 0-.3.2-.7.4-.9.2-.3.3-.3 1.8-.3H140c.1-.3.1-.3 0-.4l-1.4-.1H137ZM147.8 75.2V77c0 1.9 0 2 .3 2.6a3 3 0 0 0 2 1.6h1.3a3 3 0 0 0 2.2-2l.1-2.1v-2h-.5V77c0 1.8-.1 2-.4 2.6-.8 1.5-3 1.6-4 .2-.4-.6-.5-1-.5-3v-1.6h-.5ZM156.8 75.1c-.7.1-1.5.7-1.9 1.3-.5.7-.5 1-.5 3v1.8h.5v-1.7l.1-2c.2-.8 1-1.6 1.8-1.8 1.3-.3 2.5.4 3 1.7v2l.1 1.8h.4V77a3 3 0 0 0-3.5-1.9ZM163.4 75.1a3.1 3.1 0 0 0-2.4 3.2c0 1.5 1 2.8 2.5 3 .4.2.7.2 1.1 0 .5 0 1-.3 1.3-.5l.2-.2c.3.3.3.8.3 1.2-.1.7-.5 1.2-1.1 1.4h-1.7c-.5 0-1.2 0-1.4.3-.1.1-.1.3 0 .4h.5c.4-.2.7-.3 1.3-.2l1 .1.8-.2c.7-.4 1.1-1 1.1-2 0-.6 0-1-.3-1.3l-.1-.2.1-.2c.3-.4.4-.9.4-1.4 0-.7 0-1.1-.3-1.6-.3-.7-.7-1.2-1.3-1.5-.7-.3-1.4-.4-2-.3Zm1.1.6c.4 0 1 .4 1.2.6.3.3.6.8.7 1.2V79c-.2.7-.7 1.3-1.3 1.6-1.6.8-3.5-.4-3.5-2.3 0-.8.2-1.3.7-1.9.6-.6 1.4-.9 2.2-.7ZM170.7 75.1a3 3 0 0 0-2.3 2.4v1.3l.3.7a3 3 0 0 0 3.1 1.7c.5 0 1-.2 1.1-.4.1 0 .1-.3 0-.4h-.5l-.5.2h-1.1c-.6 0-1.2-.5-1.5-1-.2-.3-.3-.8-.3-1v-.2H174.3c.1-.3 0-1-.3-1.7l-.5-.7c-.4-.4-.7-.6-1.3-.8-.4-.1-1.1-.2-1.5 0Zm1.3.6c.9.3 1.5 1 1.7 1.8.1.5.4.4-2.4.4H169v-.1c.2-.7.4-1 .7-1.5.5-.5 1-.7 1.7-.7h.7ZM177.4 75.1a3 3 0 0 0-2.2 2c-.2.3-.2.4-.2 2.2v1.9h.5l.1-1.7v-2c.3-1 1.1-1.8 2.2-1.9 1.1 0 2.1.6 2.5 1.7l.1 2v1.9h.5v-4a3 3 0 0 0-1.9-2c-.4-.1-1.2-.2-1.6 0Z"/></g><path d="M14.2 38.2c-.1.1-.2 6.9-.2 15V68h3.7v-6.7c0-6 .1-6.8.7-7.8a5 5 0 0 1 8.7 0c.8 1.3.8 1.7.8 8V68h3.4v-7.2c0-6.8 0-7.2-.8-8.8a9 9 0 0 0-4.8-4.3c-1.6-.5-5.5-.3-6.8.4l-1.2.5V38h-1.6c-1 0-1.8.1-1.9.2Z" fill="#D7D7D7"/><path fill="#D6FD02" d="M166.7 53.5V68h2.1V39h-2.1z"/><path d="M39.3 48.5a10 10 0 0 0-7 10.5c.3 4 2.4 7.2 6.3 9.1 1.6.8 2.1.9 4.8.9 2.8 0 3.1 0 5.3-1.2l2.4-1.1v2.1h3.6l-.1-6.5c0-4-.3-7-.5-7.8a10 10 0 0 0-5.2-5.3c-2-1-2.6-1-5-1.2-2.1 0-3.3.1-4.6.5Zm7 3.2c1.3.5 3.2 2.4 3.9 3.8.4 1 .6 2.1.6 3.4 0 3.7-2.4 6.3-6.1 6.7-4.7.5-8-3-7.7-8a6.2 6.2 0 0 1 3.5-5.5 9 9 0 0 1 5.7-.4ZM80.3 47.5c-4.2 1.4-5.6 7-2.6 10.1 1.4 1.4 2 1.7 5.3 2 3.6.2 4.7.9 4.7 2.8 0 2.3-.5 2.5-6.1 2.7l-5 .1-.1 1.6c0 1 0 1.7.3 2 .7.3 8.4.3 10-.2a7 7 0 0 0 4-3.4c.8-1.4.7-4.3 0-6-1-2-3-3-6.6-3.1-2.5-.2-3-.3-3.6-1-1.6-1.9-.5-4 2.5-4.5 1-.2 3-.2 4.7 0l3 .1V47h-4.6c-3 0-5 .2-5.9.5ZM58 55.6c0 7.2 0 7.8.8 9 1.6 3 4.8 4.7 8.5 4.4A8.3 8.3 0 0 0 73 66c1.8-2 2-3 2-11V48h-3.7v7c0 6.8 0 7-.8 8.1-2.1 3-6.1 3-8.5 0-.5-.8-.6-1.4-.6-8l.1-7.1h-3.9l.2 7.6Z" fill="#D7D7D7"/><path d="M134.3 48.4a10 10 0 0 0-6.5 5.6 6.6 6.6 0 0 0-.7 4.3c.5 7.8 9.5 12.4 15.6 8 .6-.5.6-.5-.3-1-.8-.3-1.2-.2-2.4.2a7.7 7.7 0 0 1-8.6-2 13 13 0 0 1-2.7-4.6l9.9-.1h9.8l-.2-1.6c-.5-3.6-3-6.8-6.2-8.3-2-1-5.6-1.2-7.7-.5Zm7.7 3c1.7.7 3.4 2.3 4 3.6 0 .4.3 1 .4 1.4l.3.7H129l.3-.9c1.1-3.7 4-5.6 8.5-5.7 1.8 0 2.8.2 4 .8ZM158.9 48.6a10 10 0 0 0-2.9 1.9c-2.6 2.5-3.5 5.6-3.5 12.7V68h1.8v-5.3c0-6 .4-8 2.2-10a9.1 9.1 0 0 1 5.3-2.8c.7 0 .9-.1.9-1 0-.8-.1-1-1-.9-.7 0-2 .3-2.8.6ZM94.6 49.5c-.4 1 0 12.5.5 13.7 1 2.7 3.4 4.4 6.5 4.7 2.7.3 4.8-.3 6.4-2l1.4-1.3 1.3 1.2A7.3 7.3 0 0 0 117 68a7.3 7.3 0 0 0 6.4-4.2c.6-1.1.7-2.2.7-8V49H122.3v6.4c0 5.5-.1 6.5-.6 7.7-1.9 4-8 4.3-10.4.6-1-1.2-1-1.3-1-8l-.1-6.7h-1.6v6.7c-.2 6.3-.3 6.8-1 7.9-2.5 3.8-8.4 3.5-10.4-.5-.7-1.3-.7-2-.7-7.7V49h-.9c-.4 0-1 .2-1 .5ZM173.7 53.4a53.4 53.4 0 0 0-4.9 4.9c-.2.4.9 1.6 4.7 5.1 4.5 4.3 5 4.6 6.2 4.6h1.3l-4.7-4.6a51 51 0 0 1-4.7-4.8c0-.2 2.1-2.4 4.7-5L181 49h-1.4c-1.2 0-1.6.3-5.9 4.4Z" fill="#D6FD02"/></g></svg>